<svg width="807" height="779" viewBox="0 0 807 779" fill="none" xmlns="http://www.w3.org/2000/svg">
<path d="M287.152 347.221C283.794 336.901 280.771 326.914 277.413 316.594C274.054 306.273 271.032 296.619 268.345 286.965C265.659 277.644 263.308 268.988 260.957 260.998H260.285C257.263 275.313 253.569 289.628 248.867 303.943C243.83 319.923 238.792 336.568 233.419 353.213C229.053 370.191 223.68 385.838 218.642 399.82H303.944C301.929 392.829 299.242 384.506 296.22 375.851C293.197 366.862 290.174 357.208 287.152 347.221ZM575.297 337.567C556.826 336.568 539.363 346.222 530.631 362.867C526.601 370.524 524.25 378.514 523.243 386.837H594.07C602.802 386.837 609.183 386.837 613.213 386.504C615.899 386.171 618.586 385.505 620.937 383.841V380.511C620.937 376.184 620.231 372.189 618.888 368.194C612.91 349.551 595.111 336.901 575.297 337.567ZM663.621 0H143.08C64.1587 0 0.350342 63.2521 0.350342 141.485V637.515C0.350342 715.748 64.1587 779 143.08 779H663.621C742.542 779 806.35 715.748 806.35 637.515V141.485C806.35 63.2521 742.542 0 663.621 0ZM427.194 549.661H357.005C354.654 549.994 352.304 548.296 351.632 545.999L324.094 466.102H199.164L173.64 544.667C172.969 547.664 170.282 549.661 167.259 549.328H104.123C100.429 549.328 99.4212 547.331 100.429 543.336L208.567 236.03C209.574 232.701 210.582 229.705 211.925 225.71C213.269 218.719 213.94 211.395 213.94 204.071C213.605 202.407 214.948 200.742 216.627 200.409H303.608C305.959 200.409 307.638 201.408 307.974 203.073L430.553 544.301C431.56 547.963 430.586 549.661 427.194 549.661ZM690.857 416.798C690.152 423.09 689.816 427.784 689.48 430.78C689.144 433.111 687.163 435.108 684.779 435.108C682.764 435.108 679.069 435.441 673.696 435.807C668.356 436.473 661.942 436.773 654.251 436.773C646.527 436.773 638.434 435.441 629.736 435.441H523.276C524.586 445.761 527.978 456.081 533.687 465.07C539.766 474.091 548.162 481.049 558.17 485.077C571.603 490.737 586.413 493.733 601.19 493.4C612.944 493.034 624.664 492.068 636.083 489.738C646.527 488.44 656.569 485.776 666.006 482.081C667.685 480.783 668.692 481.415 668.692 484.744V535.712C668.692 537.011 668.356 538.376 667.987 539.674C667.282 540.673 666.644 541.372 665.67 542.004C654.923 546.665 643.841 549.994 632.086 551.991C616.269 554.988 600.518 556.319 584.398 555.986C558.841 555.986 537.381 551.991 519.918 544.335C503.462 537.31 488.988 526.324 477.569 512.708C466.856 499.725 459.099 485.077 454.397 469.098C449.695 453.418 447.378 437.106 447.378 420.46C447.378 402.517 450.065 384.839 455.774 367.528C461.147 350.883 469.543 335.569 480.961 321.92C492.044 308.604 505.78 297.951 521.564 290.294C537.381 282.637 556.155 279.974 577.648 279.974C595.481 279.641 613.246 282.97 629.702 290.294C643.471 296.286 655.561 305.275 664.965 316.926C673.696 328.245 680.749 340.896 685.148 354.878C689.48 368.194 691.495 381.843 691.495 395.492C691.495 403.482 691.16 410.473 690.857 416.798Z" fill="#47FECC"/>
</svg>
