<svg width="780" height="779" viewBox="0 0 780 779" fill="none" xmlns="http://www.w3.org/2000/svg">
<path d="M317.059 266.516H315.905C310.04 290.111 304.176 320.077 297.666 343.026L274.117 427.109H361.755L337.052 343.026C330.034 319.477 322.969 290.111 317.059 266.516Z" fill="#47FECC"/>
<path d="M732.162 0H48.6037C22.2384 0 0.906006 21.3323 0.906006 47.6976V731.302C0.906006 757.621 22.2384 779 48.6037 779H732.208C758.528 779 779.906 757.621 779.906 731.302V47.6976C779.906 21.3785 758.527 0 732.162 0ZM405.297 595.874L374.684 494.153H261.235L232.976 595.874H140.074L261.235 199.564H378.793L501.754 595.874H405.297ZM637.783 595.874H548.344V308.349H637.783V595.874ZM592.532 273.072C564.32 273.072 545.481 253.033 546.035 228.33C545.481 202.426 564.32 183.126 593.179 183.126C621.945 183.126 640.184 202.473 640.738 228.33C640.738 253.033 621.945 273.072 592.532 273.072Z" fill="#47FECC"/>
</svg>
