<svg width="779" height="779" viewBox="0 0 779 779" fill="none" xmlns="http://www.w3.org/2000/svg">
<path d="M264.216 222.075C244.505 222.075 231.127 223.992 224.171 225.955V352.644C232.465 354.517 242.588 355.141 256.59 355.141C308.185 355.141 340.024 329.054 340.024 285.085C339.98 245.665 312.599 222.075 264.216 222.075Z" fill="#47FECC"/>
<path d="M731.33 0H47.7148C21.3602 0 0 21.3156 0 47.581V731.151C0 757.461 21.3602 778.822 47.7148 778.822H731.33C757.64 778.822 779 757.461 779 731.151V47.6256C779 21.3156 757.64 0 731.33 0ZM396.613 384.483C363.569 415.699 314.472 429.701 257.259 429.701C244.46 429.701 233.044 429.077 224.126 427.783V581.273H127.938V157.816C157.86 152.777 199.867 148.942 259.132 148.942C318.931 148.942 361.652 160.357 390.236 183.323C417.75 204.995 436.167 240.67 436.167 282.677C436.167 324.684 422.12 360.225 396.613 384.483ZM541.585 587.606C500.738 587.606 464.484 578.776 440.894 565.978L458.062 496.591C475.9 507.338 512.867 520.091 541.585 520.091C570.794 520.091 582.923 509.924 582.923 493.96C582.923 478.085 573.38 470.459 537.126 458.33C472.823 436.702 447.94 401.652 448.564 364.728C448.564 306.846 498.241 262.788 575.298 262.788C611.597 262.788 644.061 271.127 663.147 280.626L645.978 347.515C631.976 339.845 605.265 329.723 578.464 329.723C554.963 329.723 541.63 339.266 541.63 355.185C541.63 369.812 553.626 377.438 591.842 390.86C651.062 411.195 675.945 441.161 676.525 486.914C676.525 544.93 630.594 587.606 541.585 587.606Z" fill="#47FECC"/>
</svg>
