<svg width="780" height="779" viewBox="0 0 780 779" fill="none" xmlns="http://www.w3.org/2000/svg">
<path d="M347.558 317.485C347.558 361.079 316.653 385.914 265.885 385.914C252.084 385.914 241.053 385.359 232.774 383.153V257.336C239.951 255.679 253.194 254.024 271.953 254.024C318.865 254.024 347.558 276.098 347.558 317.485ZM779.812 129.834V649.166C779.812 720.575 721.387 779 649.978 779H130.646C59.2369 778.999 0.81189 720.574 0.81189 649.165V129.834C0.81189 58.4249 59.2369 0 130.646 0H649.98C721.387 0 779.812 58.4249 779.812 129.834ZM415.43 314.725C415.43 279.962 401.09 250.714 379.016 232.504C355.281 212.636 318.866 202.151 269.196 202.151C223.394 202.151 189.731 205.464 165.451 209.878V576.843H232.777V436.678C241.608 438.338 253.197 438.89 265.888 438.89C313.898 438.89 356.385 426.191 383.43 399.16C404.398 379.29 415.43 350.042 415.43 314.725ZM615.175 303.691C609.653 302.584 605.793 302.033 599.168 302.033C570.468 302.033 539.019 321.35 525.774 359.425H523.568L521.362 308.102H462.317C463.965 332.382 464.523 358.321 464.523 394.742V576.843H532.393V437.779C532.393 430.059 533.497 422.882 534.599 416.814C540.671 386.464 562.747 365.494 595.305 365.494C603.586 365.494 609.651 366.597 615.173 367.699L615.175 303.691Z" fill="#47FECC"/>
</svg>
